<svg width="18" height="18" viewBox="0 0 18 18" fill="none" xmlns="http://www.w3.org/2000/svg">
<path fill-rule="evenodd" clip-rule="evenodd" d="M0.666504 9.00008C0.666504 4.39758 4.39734 0.666748 8.99984 0.666748C13.6023 0.666748 17.3332 4.39758 17.3332 9.00008C17.3332 13.6026 13.6023 17.3334 8.99984 17.3334C4.39734 17.3334 0.666504 13.6026 0.666504 9.00008ZM9.83317 5.66675C9.83317 5.44573 9.74537 5.23377 9.58909 5.07749C9.43281 4.92121 9.22085 4.83341 8.99984 4.83341C8.77882 4.83341 8.56686 4.92121 8.41058 5.07749C8.2543 5.23377 8.1665 5.44573 8.1665 5.66675V9.00008C8.16655 9.22108 8.25438 9.433 8.41067 9.58925L10.9107 12.0892C11.0678 12.241 11.2783 12.325 11.4968 12.3231C11.7153 12.3212 11.9243 12.2336 12.0789 12.0791C12.2334 11.9246 12.321 11.7156 12.3229 11.4971C12.3248 11.2786 12.2408 11.0681 12.089 10.9109L9.83317 8.65508V5.66675Z" fill="black"/>
</svg>
